# xmcd
#
# Track frame offsets: 
#        150
#        19940
#        41300
#        61471
#        88045
#        107629
#        141419
#        161418
#        184291
#
# Disc length: 2735 seconds
#
# Revision: 2
# Processed by: cddbd v1.5.2PL0 Copyright (c) Steve Scherf et al.
# Submitted via: ExactAudioCopyFreeDBPlugin 1.0
#
DISCID=760aad09
DTITLE=Tony Joe White - Hoodoo
DYEAR=2013
DGENRE=Blues
TTITLE0=The Gift
TTITLE1=Holed Up
TTITLE2=Who You Gonna Hoodoo Now?
TTITLE3=9 Foot Sack
TTITLE4=Alligator, Mississippi
TTITLE5=The Flood
TTITLE6=Storm Comin'
TTITLE7=Gypsy Epilogue
TTITLE8=Sweet Tooth
EXTD=
EXTT0=
EXTT1=
EXTT2=
EXTT3=
EXTT4=
EXTT5=
EXTT6=
EXTT7=
EXTT8=
PLAYORDER=
